<mxfile host="app.diagrams.net" modified="2020-12-05T14:40:27.446Z" agent="5.0 (Windows NT 10.0; Win64; x64) AppleWebKit/537.36 (KHTML, like Gecko) Chrome/87.0.4280.88 Safari/537.36" etag="RGB1XNPflV1JA89uZ2Oe" version="13.10.9" type="github">
  <diagram id="Z3qnRLCbTWZBspmnGukp" name="Page-1">
    <mxGraphModel dx="1038" dy="548" grid="1" gridSize="10" guides="1" tooltips="1" connect="1" arrows="1" fold="1" page="1" pageScale="1" pageWidth="827" pageHeight="1169" math="0" shadow="0">
      <root>
        <mxCell id="0" />
        <mxCell id="1" parent="0" />
        <mxCell id="qGPzBqT6a5XUFYiETim9-1" value="客户" style="whiteSpace=wrap;html=1;aspect=fixed;" vertex="1" parent="1">
          <mxGeometry x="160" y="170" width="80" height="80" as="geometry" />
        </mxCell>
        <mxCell id="qGPzBqT6a5XUFYiETim9-6" style="rounded=0;orthogonalLoop=1;jettySize=auto;html=1;exitX=1;exitY=0.5;exitDx=0;exitDy=0;entryX=0;entryY=0.5;entryDx=0;entryDy=0;endArrow=none;endFill=0;" edge="1" parent="1" source="qGPzBqT6a5XUFYiETim9-2" target="qGPzBqT6a5XUFYiETim9-1">
          <mxGeometry relative="1" as="geometry" />
        </mxCell>
        <mxCell id="qGPzBqT6a5XUFYiETim9-2" value="姓名" style="ellipse;whiteSpace=wrap;html=1;" vertex="1" parent="1">
          <mxGeometry x="30" y="110" width="80" height="50" as="geometry" />
        </mxCell>
        <mxCell id="qGPzBqT6a5XUFYiETim9-7" style="edgeStyle=none;rounded=0;orthogonalLoop=1;jettySize=auto;html=1;exitX=1;exitY=0.5;exitDx=0;exitDy=0;entryX=0;entryY=0.5;entryDx=0;entryDy=0;startArrow=none;startFill=0;endArrow=none;endFill=0;" edge="1" parent="1" source="qGPzBqT6a5XUFYiETim9-3" target="qGPzBqT6a5XUFYiETim9-1">
          <mxGeometry relative="1" as="geometry" />
        </mxCell>
        <mxCell id="qGPzBqT6a5XUFYiETim9-3" value="电话" style="ellipse;whiteSpace=wrap;html=1;" vertex="1" parent="1">
          <mxGeometry x="30" y="170" width="80" height="50" as="geometry" />
        </mxCell>
        <mxCell id="qGPzBqT6a5XUFYiETim9-8" style="edgeStyle=none;rounded=0;orthogonalLoop=1;jettySize=auto;html=1;exitX=1;exitY=0.5;exitDx=0;exitDy=0;entryX=0;entryY=0.5;entryDx=0;entryDy=0;startArrow=none;startFill=0;endArrow=none;endFill=0;" edge="1" parent="1" source="qGPzBqT6a5XUFYiETim9-4" target="qGPzBqT6a5XUFYiETim9-1">
          <mxGeometry relative="1" as="geometry" />
        </mxCell>
        <mxCell id="qGPzBqT6a5XUFYiETim9-4" value="地址" style="ellipse;whiteSpace=wrap;html=1;" vertex="1" parent="1">
          <mxGeometry x="30" y="230" width="80" height="50" as="geometry" />
        </mxCell>
        <mxCell id="qGPzBqT6a5XUFYiETim9-9" style="edgeStyle=none;rounded=0;orthogonalLoop=1;jettySize=auto;html=1;exitX=1;exitY=0.5;exitDx=0;exitDy=0;startArrow=none;startFill=0;endArrow=none;endFill=0;" edge="1" parent="1" source="qGPzBqT6a5XUFYiETim9-5">
          <mxGeometry relative="1" as="geometry">
            <mxPoint x="160" y="210" as="targetPoint" />
          </mxGeometry>
        </mxCell>
        <mxCell id="qGPzBqT6a5XUFYiETim9-5" value="备注" style="ellipse;whiteSpace=wrap;html=1;" vertex="1" parent="1">
          <mxGeometry x="30" y="290" width="80" height="50" as="geometry" />
        </mxCell>
        <mxCell id="qGPzBqT6a5XUFYiETim9-10" value="" style="rhombus;whiteSpace=wrap;html=1;" vertex="1" parent="1">
          <mxGeometry x="320" y="170" width="80" height="80" as="geometry" />
        </mxCell>
      </root>
    </mxGraphModel>
  </diagram>
</mxfile>
